<svg id="Layer_1" data-name="Layer 1" xmlns="http://www.w3.org/2000/svg" viewBox="0 0 275.75 739.39"><defs><style>.cls-1{fill:#ffa900;}.cls-10,.cls-11,.cls-12,.cls-13,.cls-14,.cls-15,.cls-16,.cls-17,.cls-2,.cls-8{fill:#fff;}.cls-2{opacity:0.9;}.cls-3{fill:#8cc641;}.cls-14,.cls-4{opacity:0.2;}.cls-17,.cls-5{opacity:0.5;}.cls-12,.cls-6{opacity:0.8;}.cls-10,.cls-7{opacity:0.1;}.cls-8,.cls-9{opacity:0.05;}.cls-11{opacity:0.7;}.cls-13{opacity:0.6;}.cls-15{opacity:0.3;}.cls-18{fill:#00a900;}</style></defs><polygon class="cls-1" points="209.99 39.34 192.33 116.1 83.84 198.49 0.37 213.07 0.37 237.52 0.37 604.64 32.78 604.05 48.72 585.83 138.85 625.55 133.05 739.39 222.01 534.97 275.75 567.46 234.38 370.26 200.26 287.54 247.86 207.7 226.87 92.81 242.23 0.44 209.99 39.34"/><polygon class="cls-2" points="120.6 369.82 138.06 369.82 105.8 414.93 46.46 423.83 120.6 369.82"/><path class="cls-3" d="M49.08,435.66" transform="translate(0 -14.43)"/><polygon class="cls-4" points="0 356.83 64.82 450.32 41.07 520.05 20.61 502.79 0 502.37 0 356.83"/><polygon class="cls-5" points="0 557.44 41.07 520.05 20.61 502.79 0 502.37 0 557.44"/><polygon class="cls-6" points="26.23 529.4 15.13 529.4 3.63 548.66 26.23 529.4"/><polygon class="cls-7" points="72.8 557.44 97.78 548.66 106.73 502.61 57.45 471.96 41.07 520.05 0 557.44 0 604.2 32.41 603.61 72.8 557.44"/><polygon class="cls-8" points="0 356.83 46.46 423.83 120.6 369.82 0 356.83"/><polyline class="cls-9" points="199.9 287.09 234.01 369.82 120.6 369.82 199.9 287.09"/><polygon class="cls-4" points="83.47 198.05 98.52 265.88 0 212.63 83.47 198.05"/><polygon class="cls-10" points="138.49 625.1 48.35 585.39 72.8 557.44 97.78 548.66 106.73 502.61 183.5 475.48 138.49 625.1"/><polygon class="cls-11" points="191.96 115.66 199.9 287.09 247.49 207.26 191.96 115.66"/><polygon class="cls-12" points="209.62 38.89 241.86 0 226.51 92.37 247.49 207.26 191.96 115.66 209.62 38.89"/><polygon class="cls-13" points="199.9 287.09 83.47 198.05 191.96 115.66 199.9 287.09"/><polygon class="cls-14" points="183.5 475.48 234.01 369.82 221.64 534.52 183.5 475.48"/><polygon class="cls-12" points="275.38 567.02 221.64 534.52 234.01 369.82 275.38 567.02"/><polygon class="cls-12" points="221.64 534.52 138.49 625.1 132.68 738.95 221.64 534.52"/><polygon class="cls-15" points="221.64 534.52 138.49 625.1 183.5 475.48 221.64 534.52"/><polygon class="cls-10" points="199.9 287.09 98.52 265.88 120.6 369.82 199.9 287.09"/><path class="cls-16" d="M345.51,140.12" transform="translate(0 -14.43)"/><polygon class="cls-7" points="98.52 265.88 0 356.83 0 212.63 98.52 265.88"/><polygon class="cls-17" points="199.9 287.09 83.47 198.05 98.52 265.88 199.9 287.09"/><path class="cls-18" d="M-385.47-160.53" transform="translate(0 -14.43)"/></svg>