<svg id="Layer_1" data-name="Layer 1" xmlns="http://www.w3.org/2000/svg" viewBox="0 0 145.26 194.99"><defs><style>.cls-1{fill:#00a866;}.cls-2{fill:#8cc641;}.cls-10,.cls-11,.cls-12,.cls-13,.cls-14,.cls-15,.cls-16,.cls-17,.cls-3,.cls-8{fill:#fff;}.cls-3{opacity:0.9;}.cls-14,.cls-4{opacity:0.2;}.cls-17,.cls-5{opacity:0.5;}.cls-12,.cls-6{opacity:0.8;}.cls-10,.cls-7{opacity:0.1;}.cls-8,.cls-9{opacity:0.05;}.cls-11{opacity:0.7;}.cls-13{opacity:0.6;}.cls-15{opacity:0.3;}</style></defs><polygon class="cls-1" points="17.34 10.26 22 30.5 50.62 52.23 72.63 56.08 72.63 62.53 72.63 159.36 64.08 159.2 59.88 154.4 36.11 164.87 37.64 194.9 14.17 140.98 0 149.55 10.91 97.54 19.91 75.72 7.36 54.66 12.89 24.36 8.84 0 17.34 10.26"/><path class="cls-2" d="M99.87,148.65" transform="translate(-27.24 -3.11)"/><polygon class="cls-3" points="40.82 97.54 36.22 97.54 44.73 109.44 60.38 111.79 40.82 97.54"/><path class="cls-2" d="M86.92,114.21" transform="translate(-27.24 -3.11)"/><polygon class="cls-4" points="72.63 94.12 55.53 118.77 61.8 137.16 67.2 132.61 72.63 132.5 72.63 94.12"/><polygon class="cls-5" points="72.63 147.03 61.8 137.16 67.2 132.61 72.63 132.5 72.63 147.03"/><polygon class="cls-6" points="65.71 139.63 68.64 139.63 71.67 144.71 65.71 139.63"/><polygon class="cls-7" points="53.43 147.03 46.84 144.71 44.48 132.56 57.48 124.48 61.8 137.16 72.63 147.03 72.63 159.36 64.08 159.2 53.43 147.03"/><polygon class="cls-8" points="72.63 94.12 60.38 111.79 40.82 97.54 72.63 94.12"/><polyline class="cls-9" points="19.91 75.72 10.91 97.54 40.82 97.54 19.91 75.72"/><polygon class="cls-4" points="50.62 52.23 46.65 70.13 72.63 56.08 50.62 52.23"/><polygon class="cls-10" points="36.11 164.87 59.88 154.4 53.43 147.03 46.84 144.71 44.48 132.56 24.23 125.41 36.11 164.87"/><polygon class="cls-11" points="22 30.5 19.91 75.72 7.36 54.66 22 30.5"/><polygon class="cls-12" points="17.34 10.26 8.84 0 12.89 24.36 7.36 54.66 22 30.5 17.34 10.26"/><polygon class="cls-13" points="19.91 75.72 50.62 52.23 22 30.5 19.91 75.72"/><polygon class="cls-14" points="24.23 125.41 10.91 97.54 14.17 140.98 24.23 125.41"/><polygon class="cls-12" points="0 149.55 14.17 140.98 10.91 97.54 0 149.55"/><polygon class="cls-12" points="14.17 140.98 36.11 164.87 37.64 194.9 14.17 140.98"/><polygon class="cls-15" points="14.17 140.98 36.11 164.87 24.23 125.41 14.17 140.98"/><polygon class="cls-10" points="19.91 75.72 46.65 70.13 40.82 97.54 19.91 75.72"/><path class="cls-16" d="M8.74,36.26" transform="translate(-27.24 -3.11)"/><polygon class="cls-7" points="46.65 70.13 72.63 94.12 72.63 56.08 46.65 70.13"/><polygon class="cls-17" points="19.91 75.72 50.62 52.23 46.65 70.13 19.91 75.72"/><polygon class="cls-1" points="127.92 10.35 123.26 30.6 94.65 52.33 72.63 56.17 72.63 62.62 72.63 159.45 81.18 159.29 85.38 154.49 109.16 164.96 107.63 194.99 131.09 141.07 145.26 149.64 134.35 97.63 125.35 75.81 137.91 54.76 132.37 24.45 136.42 0.09 127.92 10.35"/><path class="cls-2" d="M99.87,148.74" transform="translate(-27.24 -3.11)"/><polygon class="cls-3" points="104.44 97.63 109.04 97.63 100.54 109.53 84.88 111.88 104.44 97.63"/><path class="cls-2" d="M112.82,114.31" transform="translate(-27.24 -3.11)"/><polygon class="cls-4" points="72.63 94.21 89.73 118.86 83.46 137.26 78.07 132.7 72.63 132.59 72.63 94.21"/><polygon class="cls-5" points="72.63 147.12 83.46 137.26 78.07 132.7 72.63 132.59 72.63 147.12"/><polygon class="cls-6" points="79.55 139.72 76.62 139.72 73.59 144.8 79.55 139.72"/><polygon class="cls-7" points="91.83 147.12 98.42 144.8 100.78 132.66 87.78 124.57 83.46 137.26 72.63 147.12 72.63 159.45 81.18 159.29 91.83 147.12"/><polygon class="cls-8" points="72.63 94.21 84.88 111.88 104.44 97.63 72.63 94.21"/><polyline class="cls-9" points="125.35 75.81 134.35 97.63 104.44 97.63 125.35 75.81"/><polygon class="cls-4" points="94.65 52.33 98.62 70.22 72.63 56.17 94.65 52.33"/><polygon class="cls-10" points="109.16 164.96 85.38 154.49 91.83 147.12 98.42 144.8 100.78 132.66 121.03 125.5 109.16 164.96"/><polygon class="cls-11" points="123.26 30.6 125.35 75.81 137.91 54.76 123.26 30.6"/><polygon class="cls-12" points="127.92 10.35 136.42 0.09 132.37 24.45 137.91 54.76 123.26 30.6 127.92 10.35"/><polygon class="cls-13" points="125.35 75.81 94.65 52.33 123.26 30.6 125.35 75.81"/><polygon class="cls-14" points="121.03 125.5 134.35 97.63 131.09 141.07 121.03 125.5"/><polygon class="cls-12" points="145.26 149.64 131.09 141.07 134.35 97.63 145.26 149.64"/><polygon class="cls-12" points="131.09 141.07 109.16 164.96 107.63 194.99 131.09 141.07"/><polygon class="cls-15" points="131.09 141.07 109.16 164.96 121.03 125.5 131.09 141.07"/><polygon class="cls-10" points="125.35 75.81 98.62 70.22 104.44 97.63 125.35 75.81"/><path class="cls-16" d="M191,36.36" transform="translate(-27.24 -3.11)"/><polygon class="cls-7" points="98.62 70.22 72.63 94.21 72.63 56.17 98.62 70.22"/><polygon class="cls-17" points="125.35 75.81 94.65 52.33 98.62 70.22 125.35 75.81"/></svg>